<mxfile host="app.diagrams.net" modified="2023-12-16T20:00:48.015Z" agent="Mozilla/5.0 (X11; Ubuntu; Linux x86_64; rv:109.0) Gecko/20100101 Firefox/118.0" version="22.1.11" etag="SwKfm1Q0f1O_MIFzNQnh" type="github">
  <diagram name="Page-1" id="wHr6UaVKOtTO82JtQsO0">
    <mxGraphModel>
      <root>
        <mxCell id="0" />
        <mxCell id="1" parent="0" />
      </root>
    </mxGraphModel>
  </diagram>
</mxfile>
